solid OpenSCAD_Model
  facet normal -1 0 0
    outer loop
      vertex 0 63.5 0
      vertex 0 50 2
      vertex 0 63.5 35
    endloop
  endfacet
  facet normal -1 0 0
    outer loop
      vertex 0 63.5 0
      vertex 0 36 2
      vertex 0 50 2
    endloop
  endfacet
  facet normal -1 0 0
    outer loop
      vertex 0 0 0
      vertex 0 36 2
      vertex 0 63.5 0
    endloop
  endfacet
  facet normal -1 0 0
    outer loop
      vertex 0 0 35
      vertex 0 36 2
      vertex 0 0 0
    endloop
  endfacet
  facet normal -1 0 0
    outer loop
      vertex 0 36 2
      vertex 0 0 35
      vertex 0 36 35
    endloop
  endfacet
  facet normal -1 -0 0
    outer loop
      vertex 0 63.5 35
      vertex 0 50 2
      vertex 0 50 35
    endloop
  endfacet
  facet normal 0 0 1
    outer loop
      vertex 2 36 35
      vertex 0 36 35
      vertex 2 2 35
    endloop
  endfacet
  facet normal -0 0 1
    outer loop
      vertex 2 2 35
      vertex 24.5 0 35
      vertex 24.5 2 35
    endloop
  endfacet
  facet normal 0 0 1
    outer loop
      vertex 2 2 35
      vertex 0 0 35
      vertex 24.5 0 35
    endloop
  endfacet
  facet normal 0 0 1
    outer loop
      vertex 0 0 35
      vertex 2 2 35
      vertex 0 36 35
    endloop
  endfacet
  facet normal 0 0 1
    outer loop
      vertex 77 2 35
      vertex 79 22.0077 35
      vertex 77 22.0077 35
    endloop
  endfacet
  facet normal 0 0 1
    outer loop
      vertex 79 22.0077 35
      vertex 77 2 35
      vertex 79 0 35
    endloop
  endfacet
  facet normal 0 0 1
    outer loop
      vertex 54.5 0 35
      vertex 77 2 35
      vertex 54.5 2 35
    endloop
  endfacet
  facet normal 0 0 1
    outer loop
      vertex 77 2 35
      vertex 54.5 0 35
      vertex 79 0 35
    endloop
  endfacet
  facet normal 0 0 1
    outer loop
      vertex 79 63.5 35
      vertex 77 61.5 35
      vertex 79 41.4923 35
    endloop
  endfacet
  facet normal -0 0 1
    outer loop
      vertex 54.5 63.5 35
      vertex 77 61.5 35
      vertex 79 63.5 35
    endloop
  endfacet
  facet normal 0 0 1
    outer loop
      vertex 77 61.5 35
      vertex 54.5 63.5 35
      vertex 54.5 61.5 35
    endloop
  endfacet
  facet normal 0 0 1
    outer loop
      vertex 79 41.4923 35
      vertex 77 61.5 35
      vertex 77 41.4923 35
    endloop
  endfacet
  facet normal 0 0 1
    outer loop
      vertex 24.5 63.5 35
      vertex 2 61.5 35
      vertex 24.5 61.5 35
    endloop
  endfacet
  facet normal -0 0 1
    outer loop
      vertex 0 63.5 35
      vertex 2 61.5 35
      vertex 24.5 63.5 35
    endloop
  endfacet
  facet normal 0 0 1
    outer loop
      vertex 0 50 35
      vertex 2 61.5 35
      vertex 0 63.5 35
    endloop
  endfacet
  facet normal 0 0 1
    outer loop
      vertex 2 61.5 35
      vertex 0 50 35
      vertex 2 50 35
    endloop
  endfacet
  facet normal 1 0 0
    outer loop
      vertex 79 0 35
      vertex 79 21.8048 31.9547
      vertex 79 21.8048 34.0453
    endloop
  endfacet
  facet normal 1 0 0
    outer loop
      vertex 79 21.8048 31.9547
      vertex 79 0 35
      vertex 79 21.8048 31.0453
    endloop
  endfacet
  facet normal 1 0 0
    outer loop
      vertex 79 21.8048 31.0453
      vertex 79 0 35
      vertex 79 21.8048 28.9547
    endloop
  endfacet
  facet normal 1 0 0
    outer loop
      vertex 79 21.8048 28.9547
      vertex 79 0 35
      vertex 79 21.8048 28.0453
    endloop
  endfacet
  facet normal 1 0 0
    outer loop
      vertex 79 21.8048 28.0453
      vertex 79 0 35
      vertex 79 21.8048 25.9547
    endloop
  endfacet
  facet normal 1 -0 0
    outer loop
      vertex 79 0 35
      vertex 79 21.8048 34.0453
      vertex 79 22.0077 35
    endloop
  endfacet
  facet normal 1 0 0
    outer loop
      vertex 79 21.9014 31.5
      vertex 79 21.8048 31.9547
      vertex 79 21.8048 31.0453
    endloop
  endfacet
  facet normal 1 0 0
    outer loop
      vertex 79 21.9014 28.5
      vertex 79 21.8048 28.9547
      vertex 79 21.8048 28.0453
    endloop
  endfacet
  facet normal 1 0 0
    outer loop
      vertex 79 41.6952 28.9547
      vertex 79 41.5986 28.5
      vertex 79 41.6952 28.0453
    endloop
  endfacet
  facet normal 1 0 0
    outer loop
      vertex 79 41.6952 31.9547
      vertex 79 41.5986 31.5
      vertex 79 41.6952 31.0453
    endloop
  endfacet
  facet normal 1 0 0
    outer loop
      vertex 79 41.6952 31.9547
      vertex 79 63.5 35
      vertex 79 41.6952 34.0453
    endloop
  endfacet
  facet normal 1 0 -0
    outer loop
      vertex 79 41.6952 34.0453
      vertex 79 63.5 35
      vertex 79 41.4923 35
    endloop
  endfacet
  facet normal 1 0 0
    outer loop
      vertex 79 41.6952 31.0453
      vertex 79 63.5 35
      vertex 79 41.6952 31.9547
    endloop
  endfacet
  facet normal 1 0 0
    outer loop
      vertex 79 41.6952 28.9547
      vertex 79 63.5 35
      vertex 79 41.6952 31.0453
    endloop
  endfacet
  facet normal 1 0 0
    outer loop
      vertex 79 41.6952 28.0453
      vertex 79 63.5 35
      vertex 79 41.6952 28.9547
    endloop
  endfacet
  facet normal 1 0 0
    outer loop
      vertex 79 41.6952 25.9547
      vertex 79 63.5 35
      vertex 79 41.6952 28.0453
    endloop
  endfacet
  facet normal 1 0 0
    outer loop
      vertex 79 41.2606 23.9098
      vertex 79 63.5 35
      vertex 79 41.6952 25.9547
    endloop
  endfacet
  facet normal 1 0 0
    outer loop
      vertex 79 63.5 35
      vertex 79 41.2606 23.9098
      vertex 79 63.5 0
    endloop
  endfacet
  facet normal 1 -0 0
    outer loop
      vertex 79 40.4103 22
      vertex 79 63.5 0
      vertex 79 41.2606 23.9098
    endloop
  endfacet
  facet normal 1 -0 0
    outer loop
      vertex 79 39.1814 20.3087
      vertex 79 63.5 0
      vertex 79 40.4103 22
    endloop
  endfacet
  facet normal 1 -0 0
    outer loop
      vertex 79 37.6279 18.9098
      vertex 79 63.5 0
      vertex 79 39.1814 20.3087
    endloop
  endfacet
  facet normal 1 -0 0
    outer loop
      vertex 79 35.8174 17.8645
      vertex 79 63.5 0
      vertex 79 37.6279 18.9098
    endloop
  endfacet
  facet normal 1 -0 0
    outer loop
      vertex 79 33.8291 17.2185
      vertex 79 63.5 0
      vertex 79 35.8174 17.8645
    endloop
  endfacet
  facet normal 1 -0 0
    outer loop
      vertex 79 31.75 17
      vertex 79 63.5 0
      vertex 79 33.8291 17.2185
    endloop
  endfacet
  facet normal 1 0 0
    outer loop
      vertex 79 0 0
      vertex 79 31.75 17
      vertex 79 29.6709 17.2185
    endloop
  endfacet
  facet normal 1 0 0
    outer loop
      vertex 79 0 0
      vertex 79 29.6709 17.2185
      vertex 79 27.6826 17.8645
    endloop
  endfacet
  facet normal 1 0 0
    outer loop
      vertex 79 0 35
      vertex 79 22.2394 23.9098
      vertex 79 21.8048 25.9547
    endloop
  endfacet
  facet normal 1 0 0
    outer loop
      vertex 79 0 0
      vertex 79 22.2394 23.9098
      vertex 79 0 35
    endloop
  endfacet
  facet normal 1 0 0
    outer loop
      vertex 79 22.2394 23.9098
      vertex 79 0 0
      vertex 79 23.0897 22
    endloop
  endfacet
  facet normal 1 0 0
    outer loop
      vertex 79 23.0897 22
      vertex 79 0 0
      vertex 79 24.3186 20.3087
    endloop
  endfacet
  facet normal 1 0 0
    outer loop
      vertex 79 31.75 17
      vertex 79 0 0
      vertex 79 63.5 0
    endloop
  endfacet
  facet normal 1 0 0
    outer loop
      vertex 79 25.8721 18.9098
      vertex 79 0 0
      vertex 79 27.6826 17.8645
    endloop
  endfacet
  facet normal 1 0 0
    outer loop
      vertex 79 24.3186 20.3087
      vertex 79 0 0
      vertex 79 25.8721 18.9098
    endloop
  endfacet
  facet normal 0 1 0
    outer loop
      vertex 79 63.5 35
      vertex 54.5 63.5 10
      vertex 54.5 63.5 35
    endloop
  endfacet
  facet normal 0 1 0
    outer loop
      vertex 54.5 63.5 10
      vertex 79 63.5 0
      vertex 24.5 63.5 10
    endloop
  endfacet
  facet normal 0 1 -0
    outer loop
      vertex 79 63.5 0
      vertex 54.5 63.5 10
      vertex 79 63.5 35
    endloop
  endfacet
  facet normal 0 1 -0
    outer loop
      vertex 24.5 63.5 10
      vertex 0 63.5 35
      vertex 24.5 63.5 35
    endloop
  endfacet
  facet normal 0 1 0
    outer loop
      vertex 24.5 63.5 10
      vertex 0 63.5 0
      vertex 0 63.5 35
    endloop
  endfacet
  facet normal 0 1 0
    outer loop
      vertex 0 63.5 0
      vertex 24.5 63.5 10
      vertex 79 63.5 0
    endloop
  endfacet
  facet normal 0 0 -1
    outer loop
      vertex 23.9072 37.1943 0
      vertex 21.4805 43.0498 0
      vertex 24.8164 38.5947 0
    endloop
  endfacet
  facet normal 0 0 -1
    outer loop
      vertex 17 32.2334 0
      vertex 23.9072 37.1943 0
      vertex 22.5967 33.7793 0
    endloop
  endfacet
  facet normal 0 0 -1
    outer loop
      vertex 17 32.2334 0
      vertex 22.5967 33.7793 0
      vertex 22.4756 33.0205 0
    endloop
  endfacet
  facet normal -0 0 -1
    outer loop
      vertex 23.9072 37.1943 0
      vertex 17 32.2334 0
      vertex 21.4805 43.0498 0
    endloop
  endfacet
  facet normal 0 0 -1
    outer loop
      vertex 55.8379 35.5215 0
      vertex 62 32.2334 0
      vertex 56.5068 33.0225 0
    endloop
  endfacet
  facet normal 0 0 -1
    outer loop
      vertex 62 32.2334 0
      vertex 55.8379 35.5215 0
      vertex 57.5195 43.0498 0
    endloop
  endfacet
  facet normal 0 0 -1
    outer loop
      vertex 57.5195 43.0498 0
      vertex 55.8379 35.5215 0
      vertex 54.2363 38.665 0
    endloop
  endfacet
  facet normal 0 0 -1
    outer loop
      vertex 62 32.2334 0
      vertex 79 0 0
      vertex 62 26.2666 0
    endloop
  endfacet
  facet normal 0 0 -1
    outer loop
      vertex 79 0 0
      vertex 57.5195 15.4502 0
      vertex 62 26.2666 0
    endloop
  endfacet
  facet normal 0 0 -1
    outer loop
      vertex 79 0 0
      vertex 53.2998 11.2305 0
      vertex 57.5195 15.4502 0
    endloop
  endfacet
  facet normal 0 0 -1
    outer loop
      vertex 53.2998 11.2305 0
      vertex 47.4443 13.6572 0
      vertex 48.8447 14.5664 0
    endloop
  endfacet
  facet normal 0 0 -1
    outer loop
      vertex 25.7002 11.2305 0
      vertex 53.2998 11.2305 0
      vertex 79 0 0
    endloop
  endfacet
  facet normal 0 0 -1
    outer loop
      vertex 53.2998 11.2305 0
      vertex 46.873 13.4385 0
      vertex 47.4443 13.6572 0
    endloop
  endfacet
  facet normal 0 0 -1
    outer loop
      vertex 42.1328 23.6025 0
      vertex 40.4775 35.4229 0
      vertex 41.7402 35.085 0
    endloop
  endfacet
  facet normal 0 0 -1
    outer loop
      vertex 42.1328 23.6025 0
      vertex 39.1729 35.4912 0
      vertex 40.4775 35.4229 0
    endloop
  endfacet
  facet normal 0 0 -1
    outer loop
      vertex 42.1328 23.6025 0
      vertex 37.8818 35.2871 0
      vertex 39.1729 35.4912 0
    endloop
  endfacet
  facet normal 0 0 -1
    outer loop
      vertex 42.1328 23.6025 0
      vertex 36.8711 23.6133 0
      vertex 37.8818 35.2871 0
    endloop
  endfacet
  facet normal 0 0 -1
    outer loop
      vertex 46.873 13.4385 0
      vertex 36.8711 23.6133 0
      vertex 42.1328 23.6025 0
    endloop
  endfacet
  facet normal 0 0 -1
    outer loop
      vertex 46.873 13.4385 0
      vertex 32.1406 13.4668 0
      vertex 36.8711 23.6133 0
    endloop
  endfacet
  facet normal 0 0 -1
    outer loop
      vertex 53.2998 11.2305 0
      vertex 25.7002 11.2305 0
      vertex 46.873 13.4385 0
    endloop
  endfacet
  facet normal -0 0 -1
    outer loop
      vertex 32.1406 13.4668 0
      vertex 25.7002 11.2305 0
      vertex 30.085 14.5137 0
    endloop
  endfacet
  facet normal -0 0 -1
    outer loop
      vertex 46.873 13.4385 0
      vertex 25.7002 11.2305 0
      vertex 32.1406 13.4668 0
    endloop
  endfacet
  facet normal -0 0 -1
    outer loop
      vertex 17 26.2666 0
      vertex 0 0 0
      vertex 17 32.2334 0
    endloop
  endfacet
  facet normal -0 0 -1
    outer loop
      vertex 21.4805 15.4502 0
      vertex 0 0 0
      vertex 17 26.2666 0
    endloop
  endfacet
  facet normal -0 0 -1
    outer loop
      vertex 25.7002 11.2305 0
      vertex 0 0 0
      vertex 21.4805 15.4502 0
    endloop
  endfacet
  facet normal 0 0 -1
    outer loop
      vertex 0 0 0
      vertex 25.7002 11.2305 0
      vertex 79 0 0
    endloop
  endfacet
  facet normal 0 0 -1
    outer loop
      vertex 79 0 0
      vertex 62 32.2334 0
      vertex 79 63.5 0
    endloop
  endfacet
  facet normal 0 0 -1
    outer loop
      vertex 57.5195 43.0498 0
      vertex 79 63.5 0
      vertex 62 32.2334 0
    endloop
  endfacet
  facet normal 0 0 -1
    outer loop
      vertex 53.2998 47.2695 0
      vertex 79 63.5 0
      vertex 57.5195 43.0498 0
    endloop
  endfacet
  facet normal 0 0 -1
    outer loop
      vertex 45.7715 45.5879 0
      vertex 53.2998 47.2695 0
      vertex 48.915 43.9863 0
    endloop
  endfacet
  facet normal 0 0 -1
    outer loop
      vertex 42.4834 51.75 0
      vertex 53.2998 47.2695 0
      vertex 45.7715 45.5879 0
    endloop
  endfacet
  facet normal 0 0 -1
    outer loop
      vertex 42.4834 51.75 0
      vertex 45.7715 45.5879 0
      vertex 43.2725 46.2568 0
    endloop
  endfacet
  facet normal 0 0 -1
    outer loop
      vertex 53.2998 47.2695 0
      vertex 42.4834 51.75 0
      vertex 79 63.5 0
    endloop
  endfacet
  facet normal 0 0 -1
    outer loop
      vertex 36.5166 51.75 0
      vertex 79 63.5 0
      vertex 42.4834 51.75 0
    endloop
  endfacet
  facet normal 0 0 -1
    outer loop
      vertex 34.9707 46.1533 0
      vertex 36.5166 51.75 0
      vertex 35.7295 46.2744 0
    endloop
  endfacet
  facet normal 0 0 -1
    outer loop
      vertex 31.5557 44.8428 0
      vertex 36.5166 51.75 0
      vertex 34.9707 46.1533 0
    endloop
  endfacet
  facet normal 0 0 -1
    outer loop
      vertex 25.7002 47.2695 0
      vertex 31.5557 44.8428 0
      vertex 30.1553 43.9336 0
    endloop
  endfacet
  facet normal 0 0 -1
    outer loop
      vertex 31.5557 44.8428 0
      vertex 25.7002 47.2695 0
      vertex 36.5166 51.75 0
    endloop
  endfacet
  facet normal 0 0 -1
    outer loop
      vertex 0 63.5 0
      vertex 17 32.2334 0
      vertex 0 0 0
    endloop
  endfacet
  facet normal 0 0 -1
    outer loop
      vertex 36.5166 51.75 0
      vertex 0 63.5 0
      vertex 79 63.5 0
    endloop
  endfacet
  facet normal 0 0 -1
    outer loop
      vertex 25.7002 47.2695 0
      vertex 0 63.5 0
      vertex 36.5166 51.75 0
    endloop
  endfacet
  facet normal 0 0 -1
    outer loop
      vertex 21.4805 43.0498 0
      vertex 0 63.5 0
      vertex 25.7002 47.2695 0
    endloop
  endfacet
  facet normal 0 0 -1
    outer loop
      vertex 17 32.2334 0
      vertex 0 63.5 0
      vertex 21.4805 43.0498 0
    endloop
  endfacet
  facet normal 0 0 -1
    outer loop
      vertex 55.0928 21.3057 0
      vertex 62 26.2666 0
      vertex 57.5195 15.4502 0
    endloop
  endfacet
  facet normal 0 0 -1
    outer loop
      vertex 62 26.2666 0
      vertex 56.4033 24.7207 0
      vertex 56.5244 25.4795 0
    endloop
  endfacet
  facet normal 0 0 -1
    outer loop
      vertex 62 26.2666 0
      vertex 55.0928 21.3057 0
      vertex 56.4033 24.7207 0
    endloop
  endfacet
  facet normal 0 -0 -1
    outer loop
      vertex 55.0928 21.3057 0
      vertex 57.5195 15.4502 0
      vertex 54.1836 19.9053 0
    endloop
  endfacet
  facet normal 0 0 -1
    outer loop
      vertex 45.5371 27.6318 0
      vertex 45.6729 30.2275 0
      vertex 45.7412 28.9229 0
    endloop
  endfacet
  facet normal 0 0 -1
    outer loop
      vertex 45.5371 27.6318 0
      vertex 45.335 31.4902 0
      vertex 45.6729 30.2275 0
    endloop
  endfacet
  facet normal 0 0 -1
    outer loop
      vertex 45.0684 26.4121 0
      vertex 45.335 31.4902 0
      vertex 45.5371 27.6318 0
    endloop
  endfacet
  facet normal 0 0 -1
    outer loop
      vertex 45.0684 26.4121 0
      vertex 44.7422 32.6543 0
      vertex 45.335 31.4902 0
    endloop
  endfacet
  facet normal 0 0 -1
    outer loop
      vertex 44.3574 25.3164 0
      vertex 44.7422 32.6543 0
      vertex 45.0684 26.4121 0
    endloop
  endfacet
  facet normal 0 0 -1
    outer loop
      vertex 44.3574 25.3164 0
      vertex 43.9199 33.6699 0
      vertex 44.7422 32.6543 0
    endloop
  endfacet
  facet normal 0 0 -1
    outer loop
      vertex 42.1328 23.6025 0
      vertex 44.3574 25.3164 0
      vertex 43.4336 24.3926 0
    endloop
  endfacet
  facet normal -0 0 -1
    outer loop
      vertex 44.3574 25.3164 0
      vertex 42.1328 23.6025 0
      vertex 43.9199 33.6699 0
    endloop
  endfacet
  facet normal 0 0 -1
    outer loop
      vertex 42.1328 23.6025 0
      vertex 43.4336 24.3926 0
      vertex 42.3379 23.6816 0
    endloop
  endfacet
  facet normal -0 0 -1
    outer loop
      vertex 43.9199 33.6699 0
      vertex 42.1328 23.6025 0
      vertex 42.9043 34.4922 0
    endloop
  endfacet
  facet normal -0 0 -1
    outer loop
      vertex 42.9043 34.4922 0
      vertex 42.1328 23.6025 0
      vertex 41.7402 35.085 0
    endloop
  endfacet
  facet normal 0 0 -1
    outer loop
      vertex 36.8711 23.6133 0
      vertex 36.6621 34.8184 0
      vertex 37.8818 35.2871 0
    endloop
  endfacet
  facet normal 0 0 -1
    outer loop
      vertex 35.0801 24.8301 0
      vertex 36.8711 23.6133 0
      vertex 36.0957 24.0078 0
    endloop
  endfacet
  facet normal 0 0 -1
    outer loop
      vertex 36.8711 23.6133 0
      vertex 35.5664 34.1074 0
      vertex 36.6621 34.8184 0
    endloop
  endfacet
  facet normal 0 0 -1
    outer loop
      vertex 34.2578 25.8457 0
      vertex 36.8711 23.6133 0
      vertex 35.0801 24.8301 0
    endloop
  endfacet
  facet normal 0 0 -1
    outer loop
      vertex 36.8711 23.6133 0
      vertex 34.6426 33.1836 0
      vertex 35.5664 34.1074 0
    endloop
  endfacet
  facet normal 0 0 -1
    outer loop
      vertex 36.8711 23.6133 0
      vertex 34.2578 25.8457 0
      vertex 34.6426 33.1836 0
    endloop
  endfacet
  facet normal 0 0 -1
    outer loop
      vertex 34.2578 25.8457 0
      vertex 33.9316 32.0879 0
      vertex 34.6426 33.1836 0
    endloop
  endfacet
  facet normal 0 0 -1
    outer loop
      vertex 33.665 27.0098 0
      vertex 33.9316 32.0879 0
      vertex 34.2578 25.8457 0
    endloop
  endfacet
  facet normal 0 0 -1
    outer loop
      vertex 33.665 27.0098 0
      vertex 33.4629 30.8682 0
      vertex 33.9316 32.0879 0
    endloop
  endfacet
  facet normal 0 0 -1
    outer loop
      vertex 33.3271 28.2725 0
      vertex 33.4629 30.8682 0
      vertex 33.665 27.0098 0
    endloop
  endfacet
  facet normal 0 0 -1
    outer loop
      vertex 33.4629 30.8682 0
      vertex 33.3271 28.2725 0
      vertex 33.2588 29.5771 0
    endloop
  endfacet
  facet normal 0 0 -1
    outer loop
      vertex 21.4805 15.4502 0
      vertex 23.1621 22.9785 0
      vertex 24.7637 19.835 0
    endloop
  endfacet
  facet normal 0 0 -1
    outer loop
      vertex 17 26.2666 0
      vertex 23.1621 22.9785 0
      vertex 21.4805 15.4502 0
    endloop
  endfacet
  facet normal 0 0 -1
    outer loop
      vertex 23.1621 22.9785 0
      vertex 17 26.2666 0
      vertex 22.4932 25.4775 0
    endloop
  endfacet
  facet normal 0 -1 0
    outer loop
      vertex 0 0 35
      vertex 24.5 0 10
      vertex 24.5 0 35
    endloop
  endfacet
  facet normal 0 -1 -0
    outer loop
      vertex 24.5 0 10
      vertex 0 0 0
      vertex 54.5 0 10
    endloop
  endfacet
  facet normal 0 -1 0
    outer loop
      vertex 0 0 0
      vertex 24.5 0 10
      vertex 0 0 35
    endloop
  endfacet
  facet normal 0 -1 0
    outer loop
      vertex 54.5 0 10
      vertex 79 0 35
      vertex 54.5 0 35
    endloop
  endfacet
  facet normal 0 -1 0
    outer loop
      vertex 54.5 0 10
      vertex 79 0 0
      vertex 79 0 35
    endloop
  endfacet
  facet normal 0 -1 0
    outer loop
      vertex 79 0 0
      vertex 54.5 0 10
      vertex 0 0 0
    endloop
  endfacet
  facet normal 0 -0.104529 0.994522
    outer loop
      vertex 77 33.8291 17.2185
      vertex 79 31.75 17
      vertex 79 33.8291 17.2185
    endloop
  endfacet
  facet normal 0 -0.104529 0.994522
    outer loop
      vertex 79 31.75 17
      vertex 77 33.8291 17.2185
      vertex 77 31.75 17
    endloop
  endfacet
  facet normal 0 1 -0
    outer loop
      vertex 79 21.8048 25.9547
      vertex 77 21.8048 28.0453
      vertex 79 21.8048 28.0453
    endloop
  endfacet
  facet normal 0 1 0
    outer loop
      vertex 77 21.8048 28.0453
      vertex 79 21.8048 25.9547
      vertex 77 21.8048 25.9547
    endloop
  endfacet
  facet normal -0 0.5 0.866025
    outer loop
      vertex 77 27.6826 17.8645
      vertex 79 25.8721 18.9098
      vertex 79 27.6826 17.8645
    endloop
  endfacet
  facet normal 0 0.5 0.866025
    outer loop
      vertex 79 25.8721 18.9098
      vertex 77 27.6826 17.8645
      vertex 77 25.8721 18.9098
    endloop
  endfacet
  facet normal 0 -0.309016 0.951057
    outer loop
      vertex 77 35.8174 17.8645
      vertex 79 33.8291 17.2185
      vertex 79 35.8174 17.8645
    endloop
  endfacet
  facet normal 0 -0.309016 0.951057
    outer loop
      vertex 79 33.8291 17.2185
      vertex 77 35.8174 17.8645
      vertex 77 33.8291 17.2185
    endloop
  endfacet
  facet normal 0 -0.669131 0.743145
    outer loop
      vertex 77 39.1814 20.3087
      vertex 79 37.6279 18.9098
      vertex 79 39.1814 20.3087
    endloop
  endfacet
  facet normal 0 -0.669131 0.743145
    outer loop
      vertex 79 37.6279 18.9098
      vertex 77 39.1814 20.3087
      vertex 77 37.6279 18.9098
    endloop
  endfacet
  facet normal 0 -0.978148 0.20791
    outer loop
      vertex 77 41.2606 23.9098
      vertex 79 41.6952 25.9547
      vertex 77 41.6952 25.9547
    endloop
  endfacet
  facet normal 0 -0.978148 0.20791
    outer loop
      vertex 79 41.6952 25.9547
      vertex 77 41.2606 23.9098
      vertex 79 41.2606 23.9098
    endloop
  endfacet
  facet normal 0 -0.809017 0.587785
    outer loop
      vertex 77 39.1814 20.3087
      vertex 79 40.4103 22
      vertex 77 40.4103 22
    endloop
  endfacet
  facet normal 0 -0.809017 0.587785
    outer loop
      vertex 79 40.4103 22
      vertex 77 39.1814 20.3087
      vertex 79 39.1814 20.3087
    endloop
  endfacet
  facet normal 0 -0.978148 -0.207912
    outer loop
      vertex 77 41.6952 28.0453
      vertex 79 41.5986 28.5
      vertex 77 41.5986 28.5
    endloop
  endfacet
  facet normal 0 -0.978148 -0.207912
    outer loop
      vertex 79 41.5986 28.5
      vertex 77 41.6952 28.0453
      vertex 79 41.6952 28.0453
    endloop
  endfacet
  facet normal 0 0.978148 0.207911
    outer loop
      vertex 79 22.2394 23.9098
      vertex 77 21.8048 25.9547
      vertex 79 21.8048 25.9547
    endloop
  endfacet
  facet normal 0 0.978148 0.207911
    outer loop
      vertex 77 21.8048 25.9547
      vertex 79 22.2394 23.9098
      vertex 77 22.2394 23.9098
    endloop
  endfacet
  facet normal 0 -0.5 0.866025
    outer loop
      vertex 77 37.6279 18.9098
      vertex 79 35.8174 17.8645
      vertex 79 37.6279 18.9098
    endloop
  endfacet
  facet normal 0 -0.5 0.866025
    outer loop
      vertex 79 35.8174 17.8645
      vertex 77 37.6279 18.9098
      vertex 77 35.8174 17.8645
    endloop
  endfacet
  facet normal 0 -1 0
    outer loop
      vertex 77 41.6952 25.9547
      vertex 79 41.6952 28.0453
      vertex 77 41.6952 28.0453
    endloop
  endfacet
  facet normal 0 -1 -0
    outer loop
      vertex 79 41.6952 28.0453
      vertex 77 41.6952 25.9547
      vertex 79 41.6952 25.9547
    endloop
  endfacet
  facet normal 0 -0.913545 0.406737
    outer loop
      vertex 77 40.4103 22
      vertex 79 41.2606 23.9098
      vertex 77 41.2606 23.9098
    endloop
  endfacet
  facet normal 0 -0.913545 0.406737
    outer loop
      vertex 79 41.2606 23.9098
      vertex 77 40.4103 22
      vertex 79 40.4103 22
    endloop
  endfacet
  facet normal -0 0.309016 0.951057
    outer loop
      vertex 77 29.6709 17.2185
      vertex 79 27.6826 17.8645
      vertex 79 29.6709 17.2185
    endloop
  endfacet
  facet normal 0 0.309016 0.951057
    outer loop
      vertex 79 27.6826 17.8645
      vertex 77 29.6709 17.2185
      vertex 77 27.6826 17.8645
    endloop
  endfacet
  facet normal -0 0.104529 0.994522
    outer loop
      vertex 77 31.75 17
      vertex 79 29.6709 17.2185
      vertex 79 31.75 17
    endloop
  endfacet
  facet normal 0 0.104529 0.994522
    outer loop
      vertex 79 29.6709 17.2185
      vertex 77 31.75 17
      vertex 77 29.6709 17.2185
    endloop
  endfacet
  facet normal 0 0.809017 0.587785
    outer loop
      vertex 79 24.3186 20.3087
      vertex 77 23.0897 22
      vertex 79 23.0897 22
    endloop
  endfacet
  facet normal 0 0.809017 0.587785
    outer loop
      vertex 77 23.0897 22
      vertex 79 24.3186 20.3087
      vertex 77 24.3186 20.3087
    endloop
  endfacet
  facet normal 0 0.913545 0.406737
    outer loop
      vertex 79 23.0897 22
      vertex 77 22.2394 23.9098
      vertex 79 22.2394 23.9098
    endloop
  endfacet
  facet normal 0 0.913545 0.406737
    outer loop
      vertex 77 22.2394 23.9098
      vertex 79 23.0897 22
      vertex 77 23.0897 22
    endloop
  endfacet
  facet normal 0 0.978148 -0.207912
    outer loop
      vertex 79 21.8048 28.0453
      vertex 77 21.9014 28.5
      vertex 79 21.9014 28.5
    endloop
  endfacet
  facet normal 0 0.978148 -0.207912
    outer loop
      vertex 77 21.9014 28.5
      vertex 79 21.8048 28.0453
      vertex 77 21.8048 28.0453
    endloop
  endfacet
  facet normal -0 0.669131 0.743145
    outer loop
      vertex 77 25.8721 18.9098
      vertex 79 24.3186 20.3087
      vertex 79 25.8721 18.9098
    endloop
  endfacet
  facet normal 0 0.669131 0.743145
    outer loop
      vertex 79 24.3186 20.3087
      vertex 77 25.8721 18.9098
      vertex 77 24.3186 20.3087
    endloop
  endfacet
  facet normal 0 1 -0
    outer loop
      vertex 79 21.8048 28.9547
      vertex 77 21.8048 31.0453
      vertex 79 21.8048 31.0453
    endloop
  endfacet
  facet normal 0 1 0
    outer loop
      vertex 77 21.8048 31.0453
      vertex 79 21.8048 28.9547
      vertex 77 21.8048 28.9547
    endloop
  endfacet
  facet normal 0 -0.978148 0.207912
    outer loop
      vertex 77 41.5986 28.5
      vertex 79 41.6952 28.9547
      vertex 77 41.6952 28.9547
    endloop
  endfacet
  facet normal 0 -0.978148 0.207912
    outer loop
      vertex 79 41.6952 28.9547
      vertex 77 41.5986 28.5
      vertex 79 41.5986 28.5
    endloop
  endfacet
  facet normal 0 -0.978148 -0.207912
    outer loop
      vertex 77 41.6952 31.0453
      vertex 79 41.5986 31.5
      vertex 77 41.5986 31.5
    endloop
  endfacet
  facet normal 0 -0.978148 -0.207912
    outer loop
      vertex 79 41.5986 31.5
      vertex 77 41.6952 31.0453
      vertex 79 41.6952 31.0453
    endloop
  endfacet
  facet normal 0 0.978148 0.207912
    outer loop
      vertex 79 21.9014 28.5
      vertex 77 21.8048 28.9547
      vertex 79 21.8048 28.9547
    endloop
  endfacet
  facet normal 0 0.978148 0.207912
    outer loop
      vertex 77 21.8048 28.9547
      vertex 79 21.9014 28.5
      vertex 77 21.9014 28.5
    endloop
  endfacet
  facet normal 0 -1 0
    outer loop
      vertex 77 41.6952 28.9547
      vertex 79 41.6952 31.0453
      vertex 77 41.6952 31.0453
    endloop
  endfacet
  facet normal 0 -1 -0
    outer loop
      vertex 79 41.6952 31.0453
      vertex 77 41.6952 28.9547
      vertex 79 41.6952 28.9547
    endloop
  endfacet
  facet normal 0 0.978148 -0.207912
    outer loop
      vertex 79 21.8048 31.0453
      vertex 77 21.9014 31.5
      vertex 79 21.9014 31.5
    endloop
  endfacet
  facet normal 0 0.978148 -0.207912
    outer loop
      vertex 77 21.9014 31.5
      vertex 79 21.8048 31.0453
      vertex 77 21.8048 31.0453
    endloop
  endfacet
  facet normal 0 1 -0
    outer loop
      vertex 79 21.8048 31.9547
      vertex 77 21.8048 34.0453
      vertex 79 21.8048 34.0453
    endloop
  endfacet
  facet normal 0 1 0
    outer loop
      vertex 77 21.8048 34.0453
      vertex 79 21.8048 31.9547
      vertex 77 21.8048 31.9547
    endloop
  endfacet
  facet normal 0 -0.978148 0.207912
    outer loop
      vertex 77 41.5986 31.5
      vertex 79 41.6952 31.9547
      vertex 77 41.6952 31.9547
    endloop
  endfacet
  facet normal 0 -0.978148 0.207912
    outer loop
      vertex 79 41.6952 31.9547
      vertex 77 41.5986 31.5
      vertex 79 41.5986 31.5
    endloop
  endfacet
  facet normal 0 -0.978148 -0.207911
    outer loop
      vertex 77 41.6952 34.0453
      vertex 79 41.4923 35
      vertex 77 41.4923 35
    endloop
  endfacet
  facet normal 0 -0.978148 -0.207911
    outer loop
      vertex 79 41.4923 35
      vertex 77 41.6952 34.0453
      vertex 79 41.6952 34.0453
    endloop
  endfacet
  facet normal 0 0.978148 0.207912
    outer loop
      vertex 79 21.9014 31.5
      vertex 77 21.8048 31.9547
      vertex 79 21.8048 31.9547
    endloop
  endfacet
  facet normal 0 0.978148 0.207912
    outer loop
      vertex 77 21.8048 31.9547
      vertex 79 21.9014 31.5
      vertex 77 21.9014 31.5
    endloop
  endfacet
  facet normal 0 -1 0
    outer loop
      vertex 77 41.6952 31.9547
      vertex 79 41.6952 34.0453
      vertex 77 41.6952 34.0453
    endloop
  endfacet
  facet normal 0 -1 -0
    outer loop
      vertex 79 41.6952 34.0453
      vertex 77 41.6952 31.9547
      vertex 79 41.6952 31.9547
    endloop
  endfacet
  facet normal 0 0.978148 -0.207911
    outer loop
      vertex 79 21.8048 34.0453
      vertex 77 22.0077 35
      vertex 79 22.0077 35
    endloop
  endfacet
  facet normal 0 0.978148 -0.207911
    outer loop
      vertex 77 22.0077 35
      vertex 79 21.8048 34.0453
      vertex 77 21.8048 34.0453
    endloop
  endfacet
  facet normal 1 -0 0
    outer loop
      vertex 24.5 0 35
      vertex 24.5 2 10
      vertex 24.5 2 35
    endloop
  endfacet
  facet normal 1 0 0
    outer loop
      vertex 24.5 2 10
      vertex 24.5 0 35
      vertex 24.5 0 10
    endloop
  endfacet
  facet normal -1 0 0
    outer loop
      vertex 54.5 0 10
      vertex 54.5 2 35
      vertex 54.5 2 10
    endloop
  endfacet
  facet normal -1 -0 0
    outer loop
      vertex 54.5 2 35
      vertex 54.5 0 10
      vertex 54.5 0 35
    endloop
  endfacet
  facet normal -0 0 1
    outer loop
      vertex 24.5 2 10
      vertex 54.5 0 10
      vertex 54.5 2 10
    endloop
  endfacet
  facet normal 0 0 1
    outer loop
      vertex 54.5 0 10
      vertex 24.5 2 10
      vertex 24.5 0 10
    endloop
  endfacet
  facet normal 1 -0 0
    outer loop
      vertex 24.5 61.5 35
      vertex 24.5 63.5 10
      vertex 24.5 63.5 35
    endloop
  endfacet
  facet normal 1 0 0
    outer loop
      vertex 24.5 63.5 10
      vertex 24.5 61.5 35
      vertex 24.5 61.5 10
    endloop
  endfacet
  facet normal -1 0 0
    outer loop
      vertex 54.5 61.5 10
      vertex 54.5 63.5 35
      vertex 54.5 63.5 10
    endloop
  endfacet
  facet normal -1 -0 0
    outer loop
      vertex 54.5 63.5 35
      vertex 54.5 61.5 10
      vertex 54.5 61.5 35
    endloop
  endfacet
  facet normal -0 0 1
    outer loop
      vertex 24.5 63.5 10
      vertex 54.5 61.5 10
      vertex 54.5 63.5 10
    endloop
  endfacet
  facet normal 0 0 1
    outer loop
      vertex 54.5 61.5 10
      vertex 24.5 63.5 10
      vertex 24.5 61.5 10
    endloop
  endfacet
  facet normal -0.800463 -0.599382 0
    outer loop
      vertex 57.5195 15.4502 0
      vertex 54.1836 19.9053 2
      vertex 54.1836 19.9053 0
    endloop
  endfacet
  facet normal -0.800463 -0.599382 0
    outer loop
      vertex 54.1836 19.9053 2
      vertex 57.5195 15.4502 0
      vertex 57.5195 15.4502 2
    endloop
  endfacet
  facet normal -0.838737 0.544536 0
    outer loop
      vertex 54.1836 19.9053 0
      vertex 55.0928 21.3057 2
      vertex 55.0928 21.3057 0
    endloop
  endfacet
  facet normal -0.838737 0.544536 0
    outer loop
      vertex 55.0928 21.3057 2
      vertex 54.1836 19.9053 0
      vertex 54.1836 19.9053 2
    endloop
  endfacet
  facet normal -0.933614 0.358281 0
    outer loop
      vertex 55.0928 21.3057 0
      vertex 56.4033 24.7207 2
      vertex 56.4033 24.7207 0
    endloop
  endfacet
  facet normal -0.933614 0.358281 0
    outer loop
      vertex 56.4033 24.7207 2
      vertex 55.0928 21.3057 0
      vertex 55.0928 21.3057 2
    endloop
  endfacet
  facet normal -0.987504 0.157594 0
    outer loop
      vertex 56.4033 24.7207 0
      vertex 56.5244 25.4795 2
      vertex 56.5244 25.4795 0
    endloop
  endfacet
  facet normal -0.987504 0.157594 0
    outer loop
      vertex 56.5244 25.4795 2
      vertex 56.4033 24.7207 0
      vertex 56.4033 24.7207 2
    endloop
  endfacet
  facet normal -0.142286 0.989826 0
    outer loop
      vertex 62 26.2666 0
      vertex 56.5244 25.4795 2
      vertex 62 26.2666 2
    endloop
  endfacet
  facet normal -0.142286 0.989826 0
    outer loop
      vertex 56.5244 25.4795 2
      vertex 62 26.2666 0
      vertex 56.5244 25.4795 0
    endloop
  endfacet
  facet normal -1 0 0
    outer loop
      vertex 62 26.2666 0
      vertex 62 32.2334 2
      vertex 62 32.2334 0
    endloop
  endfacet
  facet normal -1 -0 0
    outer loop
      vertex 62 32.2334 2
      vertex 62 26.2666 0
      vertex 62 26.2666 2
    endloop
  endfacet
  facet normal -0.142185 -0.98984 0
    outer loop
      vertex 56.5068 33.0225 0
      vertex 62 32.2334 2
      vertex 56.5068 33.0225 2
    endloop
  endfacet
  facet normal -0.142185 -0.98984 -0
    outer loop
      vertex 62 32.2334 2
      vertex 56.5068 33.0225 0
      vertex 62 32.2334 0
    endloop
  endfacet
  facet normal -0.96599 -0.258579 0
    outer loop
      vertex 56.5068 33.0225 0
      vertex 55.8379 35.5215 2
      vertex 55.8379 35.5215 0
    endloop
  endfacet
  facet normal -0.96599 -0.258579 0
    outer loop
      vertex 55.8379 35.5215 2
      vertex 56.5068 33.0225 0
      vertex 56.5068 33.0225 2
    endloop
  endfacet
  facet normal -0.891025 -0.453955 0
    outer loop
      vertex 55.8379 35.5215 0
      vertex 54.2363 38.665 2
      vertex 54.2363 38.665 0
    endloop
  endfacet
  facet normal -0.891025 -0.453955 0
    outer loop
      vertex 54.2363 38.665 2
      vertex 55.8379 35.5215 0
      vertex 55.8379 35.5215 2
    endloop
  endfacet
  facet normal -0.80047 0.599372 0
    outer loop
      vertex 54.2363 38.665 0
      vertex 57.5195 43.0498 2
      vertex 57.5195 43.0498 0
    endloop
  endfacet
  facet normal -0.80047 0.599372 0
    outer loop
      vertex 57.5195 43.0498 2
      vertex 54.2363 38.665 0
      vertex 54.2363 38.665 2
    endloop
  endfacet
  facet normal -0.707107 -0.707107 0
    outer loop
      vertex 57.5195 43.0498 0
      vertex 53.2998 47.2695 2
      vertex 53.2998 47.2695 0
    endloop
  endfacet
  facet normal -0.707107 -0.707107 0
    outer loop
      vertex 53.2998 47.2695 2
      vertex 57.5195 43.0498 0
      vertex 57.5195 43.0498 2
    endloop
  endfacet
  facet normal 0.599372 -0.80047 0
    outer loop
      vertex 48.915 43.9863 0
      vertex 53.2998 47.2695 2
      vertex 48.915 43.9863 2
    endloop
  endfacet
  facet normal 0.599372 -0.80047 0
    outer loop
      vertex 53.2998 47.2695 2
      vertex 48.915 43.9863 0
      vertex 53.2998 47.2695 0
    endloop
  endfacet
  facet normal -0.453955 -0.891025 0
    outer loop
      vertex 45.7715 45.5879 0
      vertex 48.915 43.9863 2
      vertex 45.7715 45.5879 2
    endloop
  endfacet
  facet normal -0.453955 -0.891025 -0
    outer loop
      vertex 48.915 43.9863 2
      vertex 45.7715 45.5879 0
      vertex 48.915 43.9863 0
    endloop
  endfacet
  facet normal -0.258579 -0.96599 0
    outer loop
      vertex 43.2725 46.2568 0
      vertex 45.7715 45.5879 2
      vertex 43.2725 46.2568 2
    endloop
  endfacet
  facet normal -0.258579 -0.96599 -0
    outer loop
      vertex 45.7715 45.5879 2
      vertex 43.2725 46.2568 0
      vertex 45.7715 45.5879 0
    endloop
  endfacet
  facet normal -0.98984 -0.142185 0
    outer loop
      vertex 43.2725 46.2568 0
      vertex 42.4834 51.75 2
      vertex 42.4834 51.75 0
    endloop
  endfacet
  facet normal -0.98984 -0.142185 0
    outer loop
      vertex 42.4834 51.75 2
      vertex 43.2725 46.2568 0
      vertex 43.2725 46.2568 2
    endloop
  endfacet
  facet normal 0 -1 0
    outer loop
      vertex 36.5166 51.75 0
      vertex 42.4834 51.75 2
      vertex 36.5166 51.75 2
    endloop
  endfacet
  facet normal 0 -1 -0
    outer loop
      vertex 42.4834 51.75 2
      vertex 36.5166 51.75 0
      vertex 42.4834 51.75 0
    endloop
  endfacet
  facet normal 0.989826 -0.142286 0
    outer loop
      vertex 35.7295 46.2744 2
      vertex 36.5166 51.75 0
      vertex 36.5166 51.75 2
    endloop
  endfacet
  facet normal 0.989826 -0.142286 0
    outer loop
      vertex 36.5166 51.75 0
      vertex 35.7295 46.2744 2
      vertex 35.7295 46.2744 0
    endloop
  endfacet
  facet normal 0.157594 -0.987504 0
    outer loop
      vertex 34.9707 46.1533 0
      vertex 35.7295 46.2744 2
      vertex 34.9707 46.1533 2
    endloop
  endfacet
  facet normal 0.157594 -0.987504 0
    outer loop
      vertex 35.7295 46.2744 2
      vertex 34.9707 46.1533 0
      vertex 35.7295 46.2744 0
    endloop
  endfacet
  facet normal 0.358281 -0.933614 0
    outer loop
      vertex 31.5557 44.8428 0
      vertex 34.9707 46.1533 2
      vertex 31.5557 44.8428 2
    endloop
  endfacet
  facet normal 0.358281 -0.933614 0
    outer loop
      vertex 34.9707 46.1533 2
      vertex 31.5557 44.8428 0
      vertex 34.9707 46.1533 0
    endloop
  endfacet
  facet normal 0.544536 -0.838737 0
    outer loop
      vertex 30.1553 43.9336 0
      vertex 31.5557 44.8428 2
      vertex 30.1553 43.9336 2
    endloop
  endfacet
  facet normal 0.544536 -0.838737 0
    outer loop
      vertex 31.5557 44.8428 2
      vertex 30.1553 43.9336 0
      vertex 31.5557 44.8428 0
    endloop
  endfacet
  facet normal -0.599382 -0.800463 0
    outer loop
      vertex 25.7002 47.2695 0
      vertex 30.1553 43.9336 2
      vertex 25.7002 47.2695 2
    endloop
  endfacet
  facet normal -0.599382 -0.800463 -0
    outer loop
      vertex 30.1553 43.9336 2
      vertex 25.7002 47.2695 0
      vertex 30.1553 43.9336 0
    endloop
  endfacet
  facet normal 0.707107 -0.707107 0
    outer loop
      vertex 21.4805 43.0498 2
      vertex 25.7002 47.2695 0
      vertex 25.7002 47.2695 2
    endloop
  endfacet
  facet normal 0.707107 -0.707107 0
    outer loop
      vertex 25.7002 47.2695 0
      vertex 21.4805 43.0498 2
      vertex 21.4805 43.0498 0
    endloop
  endfacet
  facet normal 0.800463 0.599382 0
    outer loop
      vertex 24.8164 38.5947 2
      vertex 21.4805 43.0498 0
      vertex 21.4805 43.0498 2
    endloop
  endfacet
  facet normal 0.800463 0.599382 0
    outer loop
      vertex 21.4805 43.0498 0
      vertex 24.8164 38.5947 2
      vertex 24.8164 38.5947 0
    endloop
  endfacet
  facet normal 0.838737 -0.544536 0
    outer loop
      vertex 23.9072 37.1943 2
      vertex 24.8164 38.5947 0
      vertex 24.8164 38.5947 2
    endloop
  endfacet
  facet normal 0.838737 -0.544536 0
    outer loop
      vertex 24.8164 38.5947 0
      vertex 23.9072 37.1943 2
      vertex 23.9072 37.1943 0
    endloop
  endfacet
  facet normal 0.933614 -0.358281 0
    outer loop
      vertex 22.5967 33.7793 2
      vertex 23.9072 37.1943 0
      vertex 23.9072 37.1943 2
    endloop
  endfacet
  facet normal 0.933614 -0.358281 0
    outer loop
      vertex 23.9072 37.1943 0
      vertex 22.5967 33.7793 2
      vertex 22.5967 33.7793 0
    endloop
  endfacet
  facet normal 0.987504 -0.157594 0
    outer loop
      vertex 22.4756 33.0205 2
      vertex 22.5967 33.7793 0
      vertex 22.5967 33.7793 2
    endloop
  endfacet
  facet normal 0.987504 -0.157594 0
    outer loop
      vertex 22.5967 33.7793 0
      vertex 22.4756 33.0205 2
      vertex 22.4756 33.0205 0
    endloop
  endfacet
  facet normal 0.142286 -0.989826 0
    outer loop
      vertex 17 32.2334 0
      vertex 22.4756 33.0205 2
      vertex 17 32.2334 2
    endloop
  endfacet
  facet normal 0.142286 -0.989826 0
    outer loop
      vertex 22.4756 33.0205 2
      vertex 17 32.2334 0
      vertex 22.4756 33.0205 0
    endloop
  endfacet
  facet normal 1 -0 0
    outer loop
      vertex 17 26.2666 2
      vertex 17 32.2334 0
      vertex 17 32.2334 2
    endloop
  endfacet
  facet normal 1 0 0
    outer loop
      vertex 17 32.2334 0
      vertex 17 26.2666 2
      vertex 17 26.2666 0
    endloop
  endfacet
  facet normal 0.142185 0.98984 -0
    outer loop
      vertex 22.4932 25.4775 0
      vertex 17 26.2666 2
      vertex 22.4932 25.4775 2
    endloop
  endfacet
  facet normal 0.142185 0.98984 0
    outer loop
      vertex 17 26.2666 2
      vertex 22.4932 25.4775 0
      vertex 17 26.2666 0
    endloop
  endfacet
  facet normal 0.96599 0.258579 0
    outer loop
      vertex 23.1621 22.9785 2
      vertex 22.4932 25.4775 0
      vertex 22.4932 25.4775 2
    endloop
  endfacet
  facet normal 0.96599 0.258579 0
    outer loop
      vertex 22.4932 25.4775 0
      vertex 23.1621 22.9785 2
      vertex 23.1621 22.9785 0
    endloop
  endfacet
  facet normal 0.891025 0.453955 0
    outer loop
      vertex 24.7637 19.835 2
      vertex 23.1621 22.9785 0
      vertex 23.1621 22.9785 2
    endloop
  endfacet
  facet normal 0.891025 0.453955 0
    outer loop
      vertex 23.1621 22.9785 0
      vertex 24.7637 19.835 2
      vertex 24.7637 19.835 0
    endloop
  endfacet
  facet normal 0.80047 -0.599372 0
    outer loop
      vertex 21.4805 15.4502 2
      vertex 24.7637 19.835 0
      vertex 24.7637 19.835 2
    endloop
  endfacet
  facet normal 0.80047 -0.599372 0
    outer loop
      vertex 24.7637 19.835 0
      vertex 21.4805 15.4502 2
      vertex 21.4805 15.4502 0
    endloop
  endfacet
  facet normal 0.707107 0.707107 0
    outer loop
      vertex 25.7002 11.2305 2
      vertex 21.4805 15.4502 0
      vertex 21.4805 15.4502 2
    endloop
  endfacet
  facet normal 0.707107 0.707107 0
    outer loop
      vertex 21.4805 15.4502 0
      vertex 25.7002 11.2305 2
      vertex 25.7002 11.2305 0
    endloop
  endfacet
  facet normal -0.599372 0.80047 0
    outer loop
      vertex 30.085 14.5137 0
      vertex 25.7002 11.2305 2
      vertex 30.085 14.5137 2
    endloop
  endfacet
  facet normal -0.599372 0.80047 0
    outer loop
      vertex 25.7002 11.2305 2
      vertex 30.085 14.5137 0
      vertex 25.7002 11.2305 0
    endloop
  endfacet
  facet normal 0.453805 0.891101 -0
    outer loop
      vertex 32.1406 13.4668 0
      vertex 30.085 14.5137 2
      vertex 32.1406 13.4668 2
    endloop
  endfacet
  facet normal 0.453805 0.891101 0
    outer loop
      vertex 30.085 14.5137 2
      vertex 32.1406 13.4668 0
      vertex 30.085 14.5137 0
    endloop
  endfacet
  facet normal -0.906339 0.422551 0
    outer loop
      vertex 32.1406 13.4668 0
      vertex 36.8711 23.6133 2
      vertex 36.8711 23.6133 0
    endloop
  endfacet
  facet normal -0.906339 0.422551 0
    outer loop
      vertex 36.8711 23.6133 2
      vertex 32.1406 13.4668 0
      vertex 32.1406 13.4668 2
    endloop
  endfacet
  facet normal -0.453489 -0.891262 0
    outer loop
      vertex 36.0957 24.0078 0
      vertex 36.8711 23.6133 2
      vertex 36.0957 24.0078 2
    endloop
  endfacet
  facet normal -0.453489 -0.891262 -0
    outer loop
      vertex 36.8711 23.6133 2
      vertex 36.0957 24.0078 0
      vertex 36.8711 23.6133 0
    endloop
  endfacet
  facet normal -0.629241 -0.77721 0
    outer loop
      vertex 35.0801 24.8301 0
      vertex 36.0957 24.0078 2
      vertex 35.0801 24.8301 2
    endloop
  endfacet
  facet normal -0.629241 -0.77721 -0
    outer loop
      vertex 36.0957 24.0078 2
      vertex 35.0801 24.8301 0
      vertex 36.0957 24.0078 0
    endloop
  endfacet
  facet normal -0.77721 -0.629241 0
    outer loop
      vertex 35.0801 24.8301 0
      vertex 34.2578 25.8457 2
      vertex 34.2578 25.8457 0
    endloop
  endfacet
  facet normal -0.77721 -0.629241 0
    outer loop
      vertex 34.2578 25.8457 2
      vertex 35.0801 24.8301 0
      vertex 35.0801 24.8301 2
    endloop
  endfacet
  facet normal -0.891114 -0.45378 0
    outer loop
      vertex 34.2578 25.8457 0
      vertex 33.665 27.0098 2
      vertex 33.665 27.0098 0
    endloop
  endfacet
  facet normal -0.891114 -0.45378 0
    outer loop
      vertex 33.665 27.0098 2
      vertex 34.2578 25.8457 0
      vertex 34.2578 25.8457 2
    endloop
  endfacet
  facet normal -0.966011 -0.2585 0
    outer loop
      vertex 33.665 27.0098 0
      vertex 33.3271 28.2725 2
      vertex 33.3271 28.2725 0
    endloop
  endfacet
  facet normal -0.966011 -0.2585 0
    outer loop
      vertex 33.3271 28.2725 2
      vertex 33.665 27.0098 0
      vertex 33.665 27.0098 2
    endloop
  endfacet
  facet normal -0.99863 -0.0523234 0
    outer loop
      vertex 33.3271 28.2725 0
      vertex 33.2588 29.5771 2
      vertex 33.2588 29.5771 0
    endloop
  endfacet
  facet normal -0.99863 -0.0523234 0
    outer loop
      vertex 33.2588 29.5771 2
      vertex 33.3271 28.2725 0
      vertex 33.3271 28.2725 2
    endloop
  endfacet
  facet normal -0.987733 0.156154 0
    outer loop
      vertex 33.2588 29.5771 0
      vertex 33.4629 30.8682 2
      vertex 33.4629 30.8682 0
    endloop
  endfacet
  facet normal -0.987733 0.156154 0
    outer loop
      vertex 33.4629 30.8682 2
      vertex 33.2588 29.5771 0
      vertex 33.2588 29.5771 2
    endloop
  endfacet
  facet normal -0.933442 0.358729 0
    outer loop
      vertex 33.4629 30.8682 0
      vertex 33.9316 32.0879 2
      vertex 33.9316 32.0879 0
    endloop
  endfacet
  facet normal -0.933442 0.358729 0
    outer loop
      vertex 33.9316 32.0879 2
      vertex 33.4629 30.8682 0
      vertex 33.4629 30.8682 2
    endloop
  endfacet
  facet normal -0.838887 0.544305 0
    outer loop
      vertex 33.9316 32.0879 0
      vertex 34.6426 33.1836 2
      vertex 34.6426 33.1836 0
    endloop
  endfacet
  facet normal -0.838887 0.544305 0
    outer loop
      vertex 34.6426 33.1836 2
      vertex 33.9316 32.0879 0
      vertex 33.9316 32.0879 2
    endloop
  endfacet
  facet normal -0.707107 0.707107 0
    outer loop
      vertex 34.6426 33.1836 0
      vertex 35.5664 34.1074 2
      vertex 35.5664 34.1074 0
    endloop
  endfacet
  facet normal -0.707107 0.707107 0
    outer loop
      vertex 35.5664 34.1074 2
      vertex 34.6426 33.1836 0
      vertex 34.6426 33.1836 2
    endloop
  endfacet
  facet normal -0.544305 0.838887 0
    outer loop
      vertex 36.6621 34.8184 0
      vertex 35.5664 34.1074 2
      vertex 36.6621 34.8184 2
    endloop
  endfacet
  facet normal -0.544305 0.838887 0
    outer loop
      vertex 35.5664 34.1074 2
      vertex 36.6621 34.8184 0
      vertex 35.5664 34.1074 0
    endloop
  endfacet
  facet normal -0.358729 0.933442 0
    outer loop
      vertex 37.8818 35.2871 0
      vertex 36.6621 34.8184 2
      vertex 37.8818 35.2871 2
    endloop
  endfacet
  facet normal -0.358729 0.933442 0
    outer loop
      vertex 36.6621 34.8184 2
      vertex 37.8818 35.2871 0
      vertex 36.6621 34.8184 0
    endloop
  endfacet
  facet normal -0.156154 0.987733 0
    outer loop
      vertex 39.1729 35.4912 0
      vertex 37.8818 35.2871 2
      vertex 39.1729 35.4912 2
    endloop
  endfacet
  facet normal -0.156154 0.987733 0
    outer loop
      vertex 37.8818 35.2871 2
      vertex 39.1729 35.4912 0
      vertex 37.8818 35.2871 0
    endloop
  endfacet
  facet normal 0.0523234 0.99863 -0
    outer loop
      vertex 40.4775 35.4229 0
      vertex 39.1729 35.4912 2
      vertex 40.4775 35.4229 2
    endloop
  endfacet
  facet normal 0.0523234 0.99863 0
    outer loop
      vertex 39.1729 35.4912 2
      vertex 40.4775 35.4229 0
      vertex 39.1729 35.4912 0
    endloop
  endfacet
  facet normal 0.2585 0.966011 -0
    outer loop
      vertex 41.7402 35.085 0
      vertex 40.4775 35.4229 2
      vertex 41.7402 35.085 2
    endloop
  endfacet
  facet normal 0.2585 0.966011 0
    outer loop
      vertex 40.4775 35.4229 2
      vertex 41.7402 35.085 0
      vertex 40.4775 35.4229 0
    endloop
  endfacet
  facet normal 0.45378 0.891114 -0
    outer loop
      vertex 42.9043 34.4922 0
      vertex 41.7402 35.085 2
      vertex 42.9043 34.4922 2
    endloop
  endfacet
  facet normal 0.45378 0.891114 0
    outer loop
      vertex 41.7402 35.085 2
      vertex 42.9043 34.4922 0
      vertex 41.7402 35.085 0
    endloop
  endfacet
  facet normal 0.629241 0.77721 -0
    outer loop
      vertex 43.9199 33.6699 0
      vertex 42.9043 34.4922 2
      vertex 43.9199 33.6699 2
    endloop
  endfacet
  facet normal 0.629241 0.77721 0
    outer loop
      vertex 42.9043 34.4922 2
      vertex 43.9199 33.6699 0
      vertex 42.9043 34.4922 0
    endloop
  endfacet
  facet normal 0.77721 0.629241 0
    outer loop
      vertex 44.7422 32.6543 2
      vertex 43.9199 33.6699 0
      vertex 43.9199 33.6699 2
    endloop
  endfacet
  facet normal 0.77721 0.629241 0
    outer loop
      vertex 43.9199 33.6699 0
      vertex 44.7422 32.6543 2
      vertex 44.7422 32.6543 0
    endloop
  endfacet
  facet normal 0.891114 0.45378 0
    outer loop
      vertex 45.335 31.4902 2
      vertex 44.7422 32.6543 0
      vertex 44.7422 32.6543 2
    endloop
  endfacet
  facet normal 0.891114 0.45378 0
    outer loop
      vertex 44.7422 32.6543 0
      vertex 45.335 31.4902 2
      vertex 45.335 31.4902 0
    endloop
  endfacet
  facet normal 0.966011 0.2585 0
    outer loop
      vertex 45.6729 30.2275 2
      vertex 45.335 31.4902 0
      vertex 45.335 31.4902 2
    endloop
  endfacet
  facet normal 0.966011 0.2585 0
    outer loop
      vertex 45.335 31.4902 0
      vertex 45.6729 30.2275 2
      vertex 45.6729 30.2275 0
    endloop
  endfacet
  facet normal 0.99863 0.0523234 0
    outer loop
      vertex 45.7412 28.9229 2
      vertex 45.6729 30.2275 0
      vertex 45.6729 30.2275 2
    endloop
  endfacet
  facet normal 0.99863 0.0523234 0
    outer loop
      vertex 45.6729 30.2275 0
      vertex 45.7412 28.9229 2
      vertex 45.7412 28.9229 0
    endloop
  endfacet
  facet normal 0.987733 -0.156154 0
    outer loop
      vertex 45.5371 27.6318 2
      vertex 45.7412 28.9229 0
      vertex 45.7412 28.9229 2
    endloop
  endfacet
  facet normal 0.987733 -0.156154 0
    outer loop
      vertex 45.7412 28.9229 0
      vertex 45.5371 27.6318 2
      vertex 45.5371 27.6318 0
    endloop
  endfacet
  facet normal 0.933442 -0.358729 0
    outer loop
      vertex 45.0684 26.4121 2
      vertex 45.5371 27.6318 0
      vertex 45.5371 27.6318 2
    endloop
  endfacet
  facet normal 0.933442 -0.358729 0
    outer loop
      vertex 45.5371 27.6318 0
      vertex 45.0684 26.4121 2
      vertex 45.0684 26.4121 0
    endloop
  endfacet
  facet normal 0.838887 -0.544305 0
    outer loop
      vertex 44.3574 25.3164 2
      vertex 45.0684 26.4121 0
      vertex 45.0684 26.4121 2
    endloop
  endfacet
  facet normal 0.838887 -0.544305 0
    outer loop
      vertex 45.0684 26.4121 0
      vertex 44.3574 25.3164 2
      vertex 44.3574 25.3164 0
    endloop
  endfacet
  facet normal 0.707107 -0.707107 0
    outer loop
      vertex 43.4336 24.3926 2
      vertex 44.3574 25.3164 0
      vertex 44.3574 25.3164 2
    endloop
  endfacet
  facet normal 0.707107 -0.707107 0
    outer loop
      vertex 44.3574 25.3164 0
      vertex 43.4336 24.3926 2
      vertex 43.4336 24.3926 0
    endloop
  endfacet
  facet normal 0.544305 -0.838887 0
    outer loop
      vertex 42.3379 23.6816 0
      vertex 43.4336 24.3926 2
      vertex 42.3379 23.6816 2
    endloop
  endfacet
  facet normal 0.544305 -0.838887 0
    outer loop
      vertex 43.4336 24.3926 2
      vertex 42.3379 23.6816 0
      vertex 43.4336 24.3926 0
    endloop
  endfacet
  facet normal 0.359872 -0.933002 0
    outer loop
      vertex 42.1328 23.6025 0
      vertex 42.3379 23.6816 2
      vertex 42.1328 23.6025 2
    endloop
  endfacet
  facet normal 0.359872 -0.933002 0
    outer loop
      vertex 42.3379 23.6816 2
      vertex 42.1328 23.6025 0
      vertex 42.3379 23.6816 0
    endloop
  endfacet
  facet normal 0.906285 0.422666 0
    outer loop
      vertex 46.873 13.4385 2
      vertex 42.1328 23.6025 0
      vertex 42.1328 23.6025 2
    endloop
  endfacet
  facet normal 0.906285 0.422666 0
    outer loop
      vertex 42.1328 23.6025 0
      vertex 46.873 13.4385 2
      vertex 46.873 13.4385 0
    endloop
  endfacet
  facet normal -0.357588 0.933879 0
    outer loop
      vertex 47.4443 13.6572 0
      vertex 46.873 13.4385 2
      vertex 47.4443 13.6572 2
    endloop
  endfacet
  facet normal -0.357588 0.933879 0
    outer loop
      vertex 46.873 13.4385 2
      vertex 47.4443 13.6572 0
      vertex 46.873 13.4385 0
    endloop
  endfacet
  facet normal -0.544536 0.838737 0
    outer loop
      vertex 48.8447 14.5664 0
      vertex 47.4443 13.6572 2
      vertex 48.8447 14.5664 2
    endloop
  endfacet
  facet normal -0.544536 0.838737 0
    outer loop
      vertex 47.4443 13.6572 2
      vertex 48.8447 14.5664 0
      vertex 47.4443 13.6572 0
    endloop
  endfacet
  facet normal 0.599382 0.800463 -0
    outer loop
      vertex 53.2998 11.2305 0
      vertex 48.8447 14.5664 2
      vertex 53.2998 11.2305 2
    endloop
  endfacet
  facet normal 0.599382 0.800463 0
    outer loop
      vertex 48.8447 14.5664 2
      vertex 53.2998 11.2305 0
      vertex 48.8447 14.5664 0
    endloop
  endfacet
  facet normal -0.707107 0.707107 0
    outer loop
      vertex 53.2998 11.2305 0
      vertex 57.5195 15.4502 2
      vertex 57.5195 15.4502 0
    endloop
  endfacet
  facet normal -0.707107 0.707107 0
    outer loop
      vertex 57.5195 15.4502 2
      vertex 53.2998 11.2305 0
      vertex 53.2998 11.2305 2
    endloop
  endfacet
  facet normal 1 -0 0
    outer loop
      vertex 2 50 35
      vertex 2 61.5 2
      vertex 2 61.5 35
    endloop
  endfacet
  facet normal 1 0 0
    outer loop
      vertex 2 61.5 2
      vertex 2 50 35
      vertex 2 50 2
    endloop
  endfacet
  facet normal 1 -0 0
    outer loop
      vertex 2 2 35
      vertex 2 36 2
      vertex 2 36 35
    endloop
  endfacet
  facet normal 1 0 0
    outer loop
      vertex 2 36 2
      vertex 2 2 35
      vertex 2 2 2
    endloop
  endfacet
  facet normal -1 0 0
    outer loop
      vertex 77 41.6952 31.0453
      vertex 77 41.5986 31.5
      vertex 77 41.6952 31.9547
    endloop
  endfacet
  facet normal -1 0 0
    outer loop
      vertex 77 41.6952 28.0453
      vertex 77 41.5986 28.5
      vertex 77 41.6952 28.9547
    endloop
  endfacet
  facet normal -1 0 0
    outer loop
      vertex 77 41.2606 23.9098
      vertex 77 61.5 35
      vertex 77 61.5 2
    endloop
  endfacet
  facet normal -1 0 0
    outer loop
      vertex 77 61.5 35
      vertex 77 41.2606 23.9098
      vertex 77 41.6952 25.9547
    endloop
  endfacet
  facet normal -1 0 0
    outer loop
      vertex 77 61.5 2
      vertex 77 40.4103 22
      vertex 77 41.2606 23.9098
    endloop
  endfacet
  facet normal -1 0 0
    outer loop
      vertex 77 61.5 2
      vertex 77 39.1814 20.3087
      vertex 77 40.4103 22
    endloop
  endfacet
  facet normal -1 0 0
    outer loop
      vertex 77 61.5 2
      vertex 77 37.6279 18.9098
      vertex 77 39.1814 20.3087
    endloop
  endfacet
  facet normal -1 0 0
    outer loop
      vertex 77 61.5 2
      vertex 77 35.8174 17.8645
      vertex 77 37.6279 18.9098
    endloop
  endfacet
  facet normal -1 0 0
    outer loop
      vertex 77 61.5 2
      vertex 77 33.8291 17.2185
      vertex 77 35.8174 17.8645
    endloop
  endfacet
  facet normal -1 0 0
    outer loop
      vertex 77 61.5 2
      vertex 77 31.75 17
      vertex 77 33.8291 17.2185
    endloop
  endfacet
  facet normal -1 0 0
    outer loop
      vertex 77 2 2
      vertex 77 31.75 17
      vertex 77 61.5 2
    endloop
  endfacet
  facet normal -1 -0 0
    outer loop
      vertex 77 31.75 17
      vertex 77 2 2
      vertex 77 29.6709 17.2185
    endloop
  endfacet
  facet normal -1 0 0
    outer loop
      vertex 77 2 35
      vertex 77 21.8048 28.0453
      vertex 77 21.8048 25.9547
    endloop
  endfacet
  facet normal -1 0 0
    outer loop
      vertex 77 21.8048 28.0453
      vertex 77 2 35
      vertex 77 21.8048 28.9547
    endloop
  endfacet
  facet normal -1 0 0
    outer loop
      vertex 77 21.8048 28.9547
      vertex 77 2 35
      vertex 77 21.8048 31.0453
    endloop
  endfacet
  facet normal -1 0 0
    outer loop
      vertex 77 21.8048 31.0453
      vertex 77 2 35
      vertex 77 21.8048 31.9547
    endloop
  endfacet
  facet normal -1 0 0
    outer loop
      vertex 77 22.2394 23.9098
      vertex 77 2 35
      vertex 77 21.8048 25.9547
    endloop
  endfacet
  facet normal -1 0 0
    outer loop
      vertex 77 2 35
      vertex 77 22.2394 23.9098
      vertex 77 2 2
    endloop
  endfacet
  facet normal -1 -0 0
    outer loop
      vertex 77 23.0897 22
      vertex 77 2 2
      vertex 77 22.2394 23.9098
    endloop
  endfacet
  facet normal -1 -0 0
    outer loop
      vertex 77 24.3186 20.3087
      vertex 77 2 2
      vertex 77 23.0897 22
    endloop
  endfacet
  facet normal -1 -0 0
    outer loop
      vertex 77 25.8721 18.9098
      vertex 77 2 2
      vertex 77 24.3186 20.3087
    endloop
  endfacet
  facet normal -1 -0 0
    outer loop
      vertex 77 27.6826 17.8645
      vertex 77 2 2
      vertex 77 25.8721 18.9098
    endloop
  endfacet
  facet normal -1 -0 0
    outer loop
      vertex 77 29.6709 17.2185
      vertex 77 2 2
      vertex 77 27.6826 17.8645
    endloop
  endfacet
  facet normal -1 0 0
    outer loop
      vertex 77 41.6952 28.0453
      vertex 77 61.5 35
      vertex 77 41.6952 25.9547
    endloop
  endfacet
  facet normal -1 0 0
    outer loop
      vertex 77 41.6952 28.9547
      vertex 77 61.5 35
      vertex 77 41.6952 28.0453
    endloop
  endfacet
  facet normal -1 0 0
    outer loop
      vertex 77 41.6952 31.0453
      vertex 77 61.5 35
      vertex 77 41.6952 28.9547
    endloop
  endfacet
  facet normal -1 0 0
    outer loop
      vertex 77 41.6952 31.9547
      vertex 77 61.5 35
      vertex 77 41.6952 31.0453
    endloop
  endfacet
  facet normal -1 0 0
    outer loop
      vertex 77 41.6952 34.0453
      vertex 77 61.5 35
      vertex 77 41.6952 31.9547
    endloop
  endfacet
  facet normal -1 -0 0
    outer loop
      vertex 77 61.5 35
      vertex 77 41.6952 34.0453
      vertex 77 41.4923 35
    endloop
  endfacet
  facet normal -1 -0 0
    outer loop
      vertex 77 21.9014 28.5
      vertex 77 21.8048 28.0453
      vertex 77 21.8048 28.9547
    endloop
  endfacet
  facet normal -1 -0 0
    outer loop
      vertex 77 21.9014 31.5
      vertex 77 21.8048 31.0453
      vertex 77 21.8048 31.9547
    endloop
  endfacet
  facet normal -1 0 0
    outer loop
      vertex 77 21.8048 31.9547
      vertex 77 2 35
      vertex 77 21.8048 34.0453
    endloop
  endfacet
  facet normal -1 0 0
    outer loop
      vertex 77 21.8048 34.0453
      vertex 77 2 35
      vertex 77 22.0077 35
    endloop
  endfacet
  facet normal -0 0 1
    outer loop
      vertex 0 50 2
      vertex 2 36 2
      vertex 2 50 2
    endloop
  endfacet
  facet normal 0 0 1
    outer loop
      vertex 2 36 2
      vertex 0 50 2
      vertex 0 36 2
    endloop
  endfacet
  facet normal 0 0 1
    outer loop
      vertex 23.1621 22.9785 2
      vertex 21.4805 15.4502 2
      vertex 24.7637 19.835 2
    endloop
  endfacet
  facet normal 0 0 1
    outer loop
      vertex 17 26.2666 2
      vertex 23.1621 22.9785 2
      vertex 22.4932 25.4775 2
    endloop
  endfacet
  facet normal 0 0 1
    outer loop
      vertex 23.1621 22.9785 2
      vertex 17 26.2666 2
      vertex 21.4805 15.4502 2
    endloop
  endfacet
  facet normal 0 0 1
    outer loop
      vertex 45.6729 30.2275 2
      vertex 45.5371 27.6318 2
      vertex 45.7412 28.9229 2
    endloop
  endfacet
  facet normal 0 0 1
    outer loop
      vertex 45.335 31.4902 2
      vertex 45.5371 27.6318 2
      vertex 45.6729 30.2275 2
    endloop
  endfacet
  facet normal 0 0 1
    outer loop
      vertex 45.335 31.4902 2
      vertex 45.0684 26.4121 2
      vertex 45.5371 27.6318 2
    endloop
  endfacet
  facet normal 0 0 1
    outer loop
      vertex 44.7422 32.6543 2
      vertex 45.0684 26.4121 2
      vertex 45.335 31.4902 2
    endloop
  endfacet
  facet normal 0 0 1
    outer loop
      vertex 44.7422 32.6543 2
      vertex 44.3574 25.3164 2
      vertex 45.0684 26.4121 2
    endloop
  endfacet
  facet normal 0 0 1
    outer loop
      vertex 43.9199 33.6699 2
      vertex 44.3574 25.3164 2
      vertex 44.7422 32.6543 2
    endloop
  endfacet
  facet normal 0 0 1
    outer loop
      vertex 42.1328 23.6025 2
      vertex 44.3574 25.3164 2
      vertex 43.9199 33.6699 2
    endloop
  endfacet
  facet normal 0 0 1
    outer loop
      vertex 42.1328 23.6025 2
      vertex 43.9199 33.6699 2
      vertex 42.9043 34.4922 2
    endloop
  endfacet
  facet normal 0 0 1
    outer loop
      vertex 44.3574 25.3164 2
      vertex 42.1328 23.6025 2
      vertex 43.4336 24.3926 2
    endloop
  endfacet
  facet normal 0 0 1
    outer loop
      vertex 43.4336 24.3926 2
      vertex 42.1328 23.6025 2
      vertex 42.3379 23.6816 2
    endloop
  endfacet
  facet normal 0 -0 1
    outer loop
      vertex 42.1328 23.6025 2
      vertex 42.9043 34.4922 2
      vertex 41.7402 35.085 2
    endloop
  endfacet
  facet normal 0 0 1
    outer loop
      vertex 56.4033 24.7207 2
      vertex 62 26.2666 2
      vertex 56.5244 25.4795 2
    endloop
  endfacet
  facet normal 0 0 1
    outer loop
      vertex 55.0928 21.3057 2
      vertex 62 26.2666 2
      vertex 56.4033 24.7207 2
    endloop
  endfacet
  facet normal 0 0 1
    outer loop
      vertex 62 26.2666 2
      vertex 55.0928 21.3057 2
      vertex 57.5195 15.4502 2
    endloop
  endfacet
  facet normal 0 0 1
    outer loop
      vertex 57.5195 15.4502 2
      vertex 55.0928 21.3057 2
      vertex 54.1836 19.9053 2
    endloop
  endfacet
  facet normal 0 0 1
    outer loop
      vertex 77 61.5 2
      vertex 62 32.2334 2
      vertex 77 2 2
    endloop
  endfacet
  facet normal 0 0 1
    outer loop
      vertex 77 61.5 2
      vertex 57.5195 43.0498 2
      vertex 62 32.2334 2
    endloop
  endfacet
  facet normal 0 0 1
    outer loop
      vertex 77 61.5 2
      vertex 53.2998 47.2695 2
      vertex 57.5195 43.0498 2
    endloop
  endfacet
  facet normal 0 0 1
    outer loop
      vertex 53.2998 47.2695 2
      vertex 45.7715 45.5879 2
      vertex 48.915 43.9863 2
    endloop
  endfacet
  facet normal -0 0 1
    outer loop
      vertex 42.4834 51.75 2
      vertex 53.2998 47.2695 2
      vertex 77 61.5 2
    endloop
  endfacet
  facet normal 0 0 1
    outer loop
      vertex 53.2998 47.2695 2
      vertex 42.4834 51.75 2
      vertex 45.7715 45.5879 2
    endloop
  endfacet
  facet normal 0 0 1
    outer loop
      vertex 45.7715 45.5879 2
      vertex 42.4834 51.75 2
      vertex 43.2725 46.2568 2
    endloop
  endfacet
  facet normal 0 0 1
    outer loop
      vertex 77 61.5 2
      vertex 36.5166 51.75 2
      vertex 42.4834 51.75 2
    endloop
  endfacet
  facet normal 0 0 1
    outer loop
      vertex 36.5166 51.75 2
      vertex 34.9707 46.1533 2
      vertex 35.7295 46.2744 2
    endloop
  endfacet
  facet normal 0 0 1
    outer loop
      vertex 36.5166 51.75 2
      vertex 31.5557 44.8428 2
      vertex 34.9707 46.1533 2
    endloop
  endfacet
  facet normal -0 0 1
    outer loop
      vertex 25.7002 47.2695 2
      vertex 31.5557 44.8428 2
      vertex 36.5166 51.75 2
    endloop
  endfacet
  facet normal 0 0 1
    outer loop
      vertex 31.5557 44.8428 2
      vertex 25.7002 47.2695 2
      vertex 30.1553 43.9336 2
    endloop
  endfacet
  facet normal 0 0 1
    outer loop
      vertex 2 36 2
      vertex 21.4805 43.0498 2
      vertex 2 50 2
    endloop
  endfacet
  facet normal 0 0 1
    outer loop
      vertex 25.7002 47.2695 2
      vertex 2 50 2
      vertex 21.4805 43.0498 2
    endloop
  endfacet
  facet normal -0 0 1
    outer loop
      vertex 2 50 2
      vertex 25.7002 47.2695 2
      vertex 2 61.5 2
    endloop
  endfacet
  facet normal 0 0 1
    outer loop
      vertex 36.5166 51.75 2
      vertex 2 61.5 2
      vertex 25.7002 47.2695 2
    endloop
  endfacet
  facet normal -0 0 1
    outer loop
      vertex 2 61.5 2
      vertex 36.5166 51.75 2
      vertex 77 61.5 2
    endloop
  endfacet
  facet normal -0 0 1
    outer loop
      vertex 62 26.2666 2
      vertex 77 2 2
      vertex 62 32.2334 2
    endloop
  endfacet
  facet normal -0 0 1
    outer loop
      vertex 57.5195 15.4502 2
      vertex 77 2 2
      vertex 62 26.2666 2
    endloop
  endfacet
  facet normal -0 0 1
    outer loop
      vertex 53.2998 11.2305 2
      vertex 77 2 2
      vertex 57.5195 15.4502 2
    endloop
  endfacet
  facet normal -0 0 1
    outer loop
      vertex 47.4443 13.6572 2
      vertex 53.2998 11.2305 2
      vertex 48.8447 14.5664 2
    endloop
  endfacet
  facet normal -0 0 1
    outer loop
      vertex 46.873 13.4385 2
      vertex 53.2998 11.2305 2
      vertex 47.4443 13.6572 2
    endloop
  endfacet
  facet normal 0 0 1
    outer loop
      vertex 25.7002 11.2305 2
      vertex 53.2998 11.2305 2
      vertex 46.873 13.4385 2
    endloop
  endfacet
  facet normal 0 0 1
    outer loop
      vertex 40.4775 35.4229 2
      vertex 42.1328 23.6025 2
      vertex 41.7402 35.085 2
    endloop
  endfacet
  facet normal 0 0 1
    outer loop
      vertex 39.1729 35.4912 2
      vertex 42.1328 23.6025 2
      vertex 40.4775 35.4229 2
    endloop
  endfacet
  facet normal -0 0 1
    outer loop
      vertex 37.8818 35.2871 2
      vertex 42.1328 23.6025 2
      vertex 39.1729 35.4912 2
    endloop
  endfacet
  facet normal -0 0 1
    outer loop
      vertex 36.8711 23.6133 2
      vertex 42.1328 23.6025 2
      vertex 37.8818 35.2871 2
    endloop
  endfacet
  facet normal 0 0 1
    outer loop
      vertex 36.8711 23.6133 2
      vertex 46.873 13.4385 2
      vertex 42.1328 23.6025 2
    endloop
  endfacet
  facet normal -0 0 1
    outer loop
      vertex 32.1406 13.4668 2
      vertex 46.873 13.4385 2
      vertex 36.8711 23.6133 2
    endloop
  endfacet
  facet normal 0 0 1
    outer loop
      vertex 25.7002 11.2305 2
      vertex 46.873 13.4385 2
      vertex 32.1406 13.4668 2
    endloop
  endfacet
  facet normal 0 0 1
    outer loop
      vertex 25.7002 11.2305 2
      vertex 32.1406 13.4668 2
      vertex 30.085 14.5137 2
    endloop
  endfacet
  facet normal 0 0 1
    outer loop
      vertex 53.2998 11.2305 2
      vertex 25.7002 11.2305 2
      vertex 77 2 2
    endloop
  endfacet
  facet normal 0 0 1
    outer loop
      vertex 21.4805 43.0498 2
      vertex 2 36 2
      vertex 17 32.2334 2
    endloop
  endfacet
  facet normal 0 0 1
    outer loop
      vertex 17 32.2334 2
      vertex 2 36 2
      vertex 17 26.2666 2
    endloop
  endfacet
  facet normal 0 0 1
    outer loop
      vertex 2 2 2
      vertex 17 26.2666 2
      vertex 2 36 2
    endloop
  endfacet
  facet normal 0 0 1
    outer loop
      vertex 25.7002 11.2305 2
      vertex 2 2 2
      vertex 77 2 2
    endloop
  endfacet
  facet normal 0 0 1
    outer loop
      vertex 21.4805 15.4502 2
      vertex 2 2 2
      vertex 25.7002 11.2305 2
    endloop
  endfacet
  facet normal 0 0 1
    outer loop
      vertex 17 26.2666 2
      vertex 2 2 2
      vertex 21.4805 15.4502 2
    endloop
  endfacet
  facet normal -0 0 1
    outer loop
      vertex 55.8379 35.5215 2
      vertex 62 32.2334 2
      vertex 57.5195 43.0498 2
    endloop
  endfacet
  facet normal 0 0 1
    outer loop
      vertex 62 32.2334 2
      vertex 55.8379 35.5215 2
      vertex 56.5068 33.0225 2
    endloop
  endfacet
  facet normal 0 -0 1
    outer loop
      vertex 55.8379 35.5215 2
      vertex 57.5195 43.0498 2
      vertex 54.2363 38.665 2
    endloop
  endfacet
  facet normal -0 0 1
    outer loop
      vertex 36.6621 34.8184 2
      vertex 36.8711 23.6133 2
      vertex 37.8818 35.2871 2
    endloop
  endfacet
  facet normal -0 0 1
    outer loop
      vertex 35.5664 34.1074 2
      vertex 36.8711 23.6133 2
      vertex 36.6621 34.8184 2
    endloop
  endfacet
  facet normal -0 0 1
    outer loop
      vertex 34.6426 33.1836 2
      vertex 36.8711 23.6133 2
      vertex 35.5664 34.1074 2
    endloop
  endfacet
  facet normal 0 0 1
    outer loop
      vertex 36.8711 23.6133 2
      vertex 35.0801 24.8301 2
      vertex 36.0957 24.0078 2
    endloop
  endfacet
  facet normal -0 0 1
    outer loop
      vertex 34.2578 25.8457 2
      vertex 36.8711 23.6133 2
      vertex 34.6426 33.1836 2
    endloop
  endfacet
  facet normal 0 0 1
    outer loop
      vertex 36.8711 23.6133 2
      vertex 34.2578 25.8457 2
      vertex 35.0801 24.8301 2
    endloop
  endfacet
  facet normal -0 0 1
    outer loop
      vertex 33.9316 32.0879 2
      vertex 34.2578 25.8457 2
      vertex 34.6426 33.1836 2
    endloop
  endfacet
  facet normal 0 0 1
    outer loop
      vertex 33.9316 32.0879 2
      vertex 33.665 27.0098 2
      vertex 34.2578 25.8457 2
    endloop
  endfacet
  facet normal -0 0 1
    outer loop
      vertex 33.4629 30.8682 2
      vertex 33.665 27.0098 2
      vertex 33.9316 32.0879 2
    endloop
  endfacet
  facet normal 0 0 1
    outer loop
      vertex 33.4629 30.8682 2
      vertex 33.3271 28.2725 2
      vertex 33.665 27.0098 2
    endloop
  endfacet
  facet normal 0 -0 1
    outer loop
      vertex 33.3271 28.2725 2
      vertex 33.4629 30.8682 2
      vertex 33.2588 29.5771 2
    endloop
  endfacet
  facet normal 0 0 1
    outer loop
      vertex 21.4805 43.0498 2
      vertex 23.9072 37.1943 2
      vertex 24.8164 38.5947 2
    endloop
  endfacet
  facet normal 0 0 1
    outer loop
      vertex 17 32.2334 2
      vertex 23.9072 37.1943 2
      vertex 21.4805 43.0498 2
    endloop
  endfacet
  facet normal 0 0 1
    outer loop
      vertex 23.9072 37.1943 2
      vertex 17 32.2334 2
      vertex 22.5967 33.7793 2
    endloop
  endfacet
  facet normal 0 0 1
    outer loop
      vertex 22.5967 33.7793 2
      vertex 17 32.2334 2
      vertex 22.4756 33.0205 2
    endloop
  endfacet
  facet normal 0 1 0
    outer loop
      vertex 77 2 35
      vertex 54.5 2 10
      vertex 54.5 2 35
    endloop
  endfacet
  facet normal 0 1 0
    outer loop
      vertex 54.5 2 10
      vertex 77 2 2
      vertex 24.5 2 10
    endloop
  endfacet
  facet normal 0 1 -0
    outer loop
      vertex 77 2 2
      vertex 54.5 2 10
      vertex 77 2 35
    endloop
  endfacet
  facet normal 0 1 -0
    outer loop
      vertex 24.5 2 10
      vertex 2 2 35
      vertex 24.5 2 35
    endloop
  endfacet
  facet normal 0 1 0
    outer loop
      vertex 24.5 2 10
      vertex 2 2 2
      vertex 2 2 35
    endloop
  endfacet
  facet normal 0 1 0
    outer loop
      vertex 2 2 2
      vertex 24.5 2 10
      vertex 77 2 2
    endloop
  endfacet
  facet normal 0 -1 0
    outer loop
      vertex 2 61.5 35
      vertex 24.5 61.5 10
      vertex 24.5 61.5 35
    endloop
  endfacet
  facet normal 0 -1 -0
    outer loop
      vertex 24.5 61.5 10
      vertex 2 61.5 2
      vertex 54.5 61.5 10
    endloop
  endfacet
  facet normal 0 -1 0
    outer loop
      vertex 2 61.5 2
      vertex 24.5 61.5 10
      vertex 2 61.5 35
    endloop
  endfacet
  facet normal 0 -1 0
    outer loop
      vertex 54.5 61.5 10
      vertex 77 61.5 35
      vertex 54.5 61.5 35
    endloop
  endfacet
  facet normal 0 -1 0
    outer loop
      vertex 54.5 61.5 10
      vertex 77 61.5 2
      vertex 77 61.5 35
    endloop
  endfacet
  facet normal 0 -1 0
    outer loop
      vertex 77 61.5 2
      vertex 54.5 61.5 10
      vertex 2 61.5 2
    endloop
  endfacet
  facet normal 0 1 -0
    outer loop
      vertex 2 36 2
      vertex 0 36 35
      vertex 2 36 35
    endloop
  endfacet
  facet normal 0 1 0
    outer loop
      vertex 0 36 35
      vertex 2 36 2
      vertex 0 36 2
    endloop
  endfacet
  facet normal 0 -1 0
    outer loop
      vertex 0 50 2
      vertex 2 50 35
      vertex 0 50 35
    endloop
  endfacet
  facet normal 0 -1 -0
    outer loop
      vertex 2 50 35
      vertex 0 50 2
      vertex 2 50 2
    endloop
  endfacet
endsolid OpenSCAD_Model
